<svg role="img" aria-label="MTU Logo" class="mtu-e-logo" viewBox="0 0 155 36" fill="none" xmlns="http://www.w3.org/2000/svg">
    <path d="M95.7997 14.7768H92.6335L91.9493 16.6176H90.9982L93.8224 9.125H94.615L97.4391 16.6176H96.488L95.7997 14.7768ZM95.5118 13.9858L94.2166 10.4858L92.9213 13.9858H95.5118Z" fill="#10069F"/>
    <path d="M101.331 9.125H104.381C105.065 9.125 105.601 9.30449 105.984 9.65929C106.37 10.0162 106.562 10.4941 106.562 11.0931C106.562 11.5648 106.42 11.9613 106.135 12.2869C105.849 12.6125 105.507 12.8108 105.108 12.8817C105.409 12.9882 105.64 13.2845 105.803 13.7708L106.498 15.8913C106.589 16.1918 106.725 16.4339 106.904 16.6197H105.93C105.809 16.4986 105.703 16.3025 105.609 16.0311L104.892 13.9336C104.8 13.6623 104.689 13.4682 104.566 13.3513C104.441 13.2345 104.243 13.1739 103.972 13.1739H102.249V16.6197H101.329V9.125H101.331ZM104.347 12.4017C105.225 12.4017 105.663 11.9843 105.663 11.1495C105.663 10.3146 105.225 9.89722 104.347 9.89722H102.251V12.4017H104.347Z" fill="#10069F"/>
    <path d="M108.825 16.4193C108.429 16.1877 108.123 15.8621 107.906 15.4405C107.689 15.0189 107.58 14.5368 107.58 13.9962C107.58 13.4536 107.689 12.9715 107.906 12.552C108.123 12.1304 108.429 11.8048 108.825 11.5732C109.222 11.3415 109.676 11.2246 110.189 11.2246C110.703 11.2246 111.157 11.3415 111.554 11.5732C111.95 11.8048 112.256 12.1325 112.473 12.552C112.69 12.9736 112.799 13.4557 112.799 13.9962C112.799 14.5389 112.69 15.021 112.473 15.4405C112.256 15.8621 111.95 16.1877 111.554 16.4193C111.157 16.651 110.703 16.7679 110.189 16.7679C109.676 16.7679 109.22 16.651 108.825 16.4193ZM111.072 15.7452C111.332 15.5783 111.535 15.3424 111.681 15.0398C111.827 14.7372 111.9 14.3886 111.9 13.9962C111.9 13.6039 111.827 13.2553 111.681 12.9527C111.535 12.6501 111.33 12.4142 111.072 12.2452C110.811 12.0782 110.517 11.9927 110.189 11.9927C109.862 11.9927 109.568 12.0761 109.307 12.2452C109.046 12.4122 108.844 12.648 108.698 12.9527C108.552 13.2553 108.479 13.6039 108.479 13.9962C108.479 14.3886 108.552 14.7372 108.698 15.0398C108.844 15.3424 109.049 15.5783 109.307 15.7452C109.568 15.9122 109.862 15.9978 110.189 15.9978C110.517 15.9978 110.811 15.9143 111.072 15.7452Z" fill="#10069F"/>
    <path d="M114.307 16.4863C114.157 16.2984 114.082 16.0438 114.082 15.7182V9.12305H114.96V15.6598C114.96 15.7683 114.989 15.8539 115.045 15.9186C115.101 15.9833 115.177 16.0167 115.27 16.0167C115.35 16.0167 115.435 15.9958 115.527 15.952V16.6574C115.377 16.7284 115.191 16.7638 114.97 16.7638C114.678 16.768 114.457 16.6741 114.307 16.4863Z" fill="#10069F"/>
    <path d="M116.885 16.4863C116.735 16.2984 116.659 16.0438 116.659 15.7182V9.12305H117.538V15.6598C117.538 15.7683 117.567 15.8539 117.623 15.9186C117.679 15.9833 117.754 16.0167 117.848 16.0167C117.928 16.0167 118.013 15.9958 118.105 15.952V16.6574C117.955 16.7284 117.769 16.7638 117.548 16.7638C117.256 16.768 117.035 16.6741 116.885 16.4863Z" fill="#10069F"/>
    <path d="M119.575 16.5799C119.265 16.4547 119.014 16.2794 118.82 16.0498L119.206 15.2254C119.377 15.4675 119.592 15.6616 119.853 15.8035C120.114 15.9454 120.374 16.0185 120.639 16.0185C120.94 16.0185 121.169 15.9517 121.33 15.816C121.49 15.6804 121.569 15.4779 121.569 15.2066C121.569 14.9791 121.478 14.7871 121.296 14.6348C121.115 14.4824 120.837 14.3551 120.468 14.2549C119.982 14.1255 119.615 13.9272 119.367 13.6559C119.117 13.3846 118.991 13.0486 118.991 12.65C118.991 12.2221 119.16 11.8777 119.5 11.6168C119.838 11.356 120.251 11.2266 120.735 11.2266C121.048 11.2266 121.34 11.2704 121.607 11.356C121.874 11.4415 122.093 11.5563 122.264 11.6982L121.964 12.4579C121.601 12.1365 121.19 11.9758 120.733 11.9758C120.468 11.9758 120.255 12.0363 120.091 12.1574C119.926 12.2785 119.844 12.4454 119.844 12.6604C119.844 12.8816 119.932 13.0695 120.107 13.2218C120.282 13.3763 120.566 13.5015 120.958 13.6017C121.471 13.7311 121.847 13.9189 122.087 14.1693C122.324 14.4198 122.445 14.7662 122.445 15.2066C122.445 15.6637 122.279 16.0373 121.943 16.3316C121.607 16.6237 121.173 16.7698 120.637 16.7698C120.241 16.7678 119.886 16.7051 119.575 16.5799Z" fill="#10069F"/>
    <path d="M123.313 13.1504H126.319V13.8997H123.313V13.1504Z" fill="#10069F"/>
    <path d="M127.528 9.125H130.578C131.262 9.125 131.798 9.30449 132.182 9.65929C132.568 10.0162 132.76 10.4941 132.76 11.0931C132.76 11.5648 132.618 11.9613 132.332 12.2869C132.046 12.6125 131.704 12.8108 131.306 12.8817C131.606 12.9882 131.838 13.2845 132 13.7708L132.695 15.8913C132.787 16.1918 132.922 16.4339 133.102 16.6197H132.128C132.007 16.4986 131.9 16.3025 131.806 16.0311L131.089 13.9336C130.997 13.6623 130.887 13.4682 130.763 13.3513C130.638 13.2345 130.44 13.1739 130.169 13.1739H128.446V16.6197H127.526V9.125H127.528ZM130.547 12.4017C131.425 12.4017 131.863 11.9843 131.863 11.1495C131.863 10.3146 131.425 9.89722 130.547 9.89722H128.45V12.4017H130.547Z" fill="#10069F"/>
    <path d="M135.023 16.4193C134.626 16.1877 134.32 15.8621 134.103 15.4405C133.886 15.0189 133.777 14.5368 133.777 13.9962C133.777 13.4536 133.886 12.9715 134.103 12.552C134.32 12.1304 134.626 11.8048 135.023 11.5732C135.419 11.3415 135.874 11.2246 136.387 11.2246C136.9 11.2246 137.355 11.3415 137.751 11.5732C138.147 11.8048 138.454 12.1325 138.671 12.552C138.888 12.9736 138.996 13.4557 138.996 13.9962C138.996 14.5389 138.888 15.021 138.671 15.4405C138.454 15.8621 138.147 16.1877 137.751 16.4193C137.355 16.651 136.9 16.7679 136.387 16.7679C135.874 16.7679 135.419 16.651 135.023 16.4193ZM137.269 15.7452C137.53 15.5783 137.732 15.3424 137.878 15.0398C138.024 14.7372 138.097 14.3886 138.097 13.9962C138.097 13.6039 138.024 13.2553 137.878 12.9527C137.732 12.6501 137.528 12.4142 137.269 12.2452C137.008 12.0782 136.714 11.9927 136.387 11.9927C136.059 11.9927 135.765 12.0761 135.504 12.2452C135.244 12.4122 135.041 12.648 134.895 12.9527C134.749 13.2553 134.676 13.6039 134.676 13.9962C134.676 14.3886 134.749 14.7372 134.895 15.0398C135.041 15.3424 135.244 15.5783 135.504 15.7452C135.765 15.9122 136.059 15.9978 136.387 15.9978C136.714 15.9978 137.008 15.9143 137.269 15.7452Z" fill="#10069F"/>
    <path d="M144.377 11.373L141.778 17.9891C141.628 18.3668 141.455 18.634 141.259 18.7863C141.063 18.9387 140.821 19.0159 140.537 19.0159C140.266 19.0159 140.024 18.9658 139.809 18.8657L139.96 18.0517C140.101 18.1435 140.256 18.1915 140.418 18.1915C140.548 18.1915 140.665 18.154 140.771 18.0809C140.877 18.0058 140.961 17.8889 141.017 17.7261L141.424 16.6179L139.307 11.373H140.281L141.874 15.495L143.457 11.373H144.377Z" fill="#10069F"/>
    <path d="M145.977 16.4089C145.581 16.1689 145.274 15.8391 145.057 15.4196C144.84 14.998 144.732 14.5243 144.732 13.9962C144.732 13.4682 144.84 12.9945 145.057 12.5729C145.274 12.1513 145.581 11.8215 145.977 11.5836C146.373 11.3457 146.824 11.2246 147.331 11.2246C148.322 11.2246 149.035 11.6274 149.471 12.4351L148.808 12.9068C148.48 12.2995 147.988 11.9968 147.331 11.9968C147.003 11.9968 146.711 12.0824 146.453 12.2535C146.196 12.4247 145.994 12.6626 145.848 12.9652C145.702 13.2679 145.629 13.6122 145.629 13.9983C145.629 14.3844 145.702 14.7288 145.848 15.0314C145.994 15.3341 146.196 15.572 146.453 15.7431C146.709 15.9143 147.001 15.9998 147.331 15.9998C148.015 15.9998 148.507 15.7077 148.808 15.1212L149.471 15.549C149.022 16.363 148.309 16.77 147.331 16.77C146.824 16.7679 146.373 16.6489 145.977 16.4089Z" fill="#10069F"/>
    <path d="M154.936 14.1446H150.977C151.006 14.7081 151.173 15.1651 151.479 15.5137C151.786 15.8643 152.178 16.0375 152.656 16.0375C153.348 16.0375 153.841 15.7307 154.133 15.1171L154.806 15.5137C154.606 15.9061 154.324 16.2129 153.962 16.4341C153.599 16.6553 153.159 16.7659 152.645 16.7659C152.147 16.7659 151.705 16.6449 151.319 16.4028C150.933 16.1607 150.637 15.8288 150.426 15.4072C150.215 14.9857 150.111 14.5161 150.111 13.9943C150.111 13.4725 150.22 13.0029 150.437 12.5813C150.654 12.1598 150.958 11.8279 151.346 11.5858C151.734 11.3437 152.174 11.2227 152.666 11.2227C153.129 11.2227 153.538 11.3249 153.891 11.5274C154.243 11.7298 154.516 12.0032 154.708 12.3455C154.9 12.6878 154.996 13.0593 154.996 13.4579C155 13.675 154.979 13.9025 154.936 14.1446ZM154.197 13.4704C154.168 12.9988 154.018 12.6273 153.743 12.3518C153.467 12.0763 153.108 11.9406 152.668 11.9406C152.247 11.9406 151.888 12.0804 151.594 12.358C151.298 12.6356 151.108 13.0071 151.023 13.4704H154.197Z" fill="#10069F"/>
    <path d="M91.7889 26.9334C91.4781 26.8082 91.2278 26.6329 91.0338 26.4033L91.4197 25.5789C91.5907 25.821 91.8055 26.0151 92.0663 26.157C92.327 26.299 92.5877 26.372 92.8526 26.372C93.1529 26.372 93.3824 26.3052 93.543 26.1696C93.7036 26.0339 93.7828 25.8314 93.7828 25.5601C93.7828 25.3326 93.6911 25.1406 93.5096 24.9883C93.3281 24.8359 93.0507 24.7086 92.6816 24.6084C92.1956 24.479 91.8285 24.2808 91.5803 24.0094C91.33 23.7381 91.2048 23.4021 91.2048 23.0035C91.2048 22.5756 91.3738 22.2312 91.7138 21.9704C92.0517 21.7095 92.4646 21.5801 92.9485 21.5801C93.2614 21.5801 93.5534 21.6239 93.8204 21.7095C94.0873 21.795 94.3063 21.9098 94.4774 22.0518L94.177 22.8115C93.8141 22.49 93.4032 22.3293 92.9464 22.3293C92.6816 22.3293 92.4688 22.3899 92.304 22.5109C92.1393 22.632 92.0579 22.7989 92.0579 23.0139C92.0579 23.2351 92.1455 23.423 92.3207 23.5753C92.4959 23.7298 92.7796 23.855 93.1717 23.9552C93.6848 24.0846 94.0602 24.2724 94.3001 24.5229C94.5379 24.7733 94.6588 25.1177 94.6588 25.5601C94.6588 26.0172 94.492 26.3908 94.1562 26.6851C93.8204 26.9793 93.3865 27.1233 92.8505 27.1233C92.4542 27.1213 92.0996 27.0586 91.7889 26.9334Z" fill="#10069F"/>
    <path d="M96.7091 26.7729C96.3128 26.5412 96.0062 26.2156 95.7892 25.794C95.5723 25.3724 95.4639 24.8924 95.4639 24.3498C95.4639 23.8071 95.5723 23.325 95.7892 22.9055C96.0062 22.4839 96.3128 22.1583 96.7091 21.9267C97.1054 21.695 97.5601 21.5781 98.0732 21.5781C98.5863 21.5781 99.041 21.695 99.4372 21.9267C99.8335 22.1583 100.14 22.486 100.357 22.9055C100.574 23.3271 100.682 23.8092 100.682 24.3498C100.682 24.8924 100.574 25.3745 100.357 25.794C100.14 26.2156 99.8335 26.5412 99.4372 26.7729C99.041 27.0045 98.5863 27.1214 98.0732 27.1214C97.5601 27.1214 97.1054 27.0045 96.7091 26.7729ZM98.9575 26.0987C99.2182 25.9318 99.4206 25.6959 99.5666 25.3912C99.7126 25.0886 99.7856 24.7401 99.7856 24.3477C99.7856 23.9553 99.7126 23.6068 99.5666 23.3041C99.4206 23.0015 99.2162 22.7657 98.9575 22.5966C98.6968 22.4297 98.4027 22.3441 98.0752 22.3441C97.7478 22.3441 97.4537 22.4276 97.193 22.5966C96.9322 22.7636 96.7299 22.9994 96.5839 23.3041C96.4379 23.6068 96.3649 23.9553 96.3649 24.3477C96.3649 24.7401 96.4379 25.0886 96.5839 25.3912C96.7299 25.6938 96.9343 25.9297 97.193 26.0987C97.4537 26.2657 97.7478 26.3513 98.0752 26.3513C98.4027 26.3513 98.6968 26.2678 98.9575 26.0987Z" fill="#10069F"/>
    <path d="M102.086 26.8398C101.936 26.6519 101.861 26.3973 101.861 26.0717V19.4766H102.739V26.0133C102.739 26.1218 102.768 26.2074 102.825 26.2721C102.881 26.3368 102.956 26.3702 103.05 26.3702C103.129 26.3702 103.215 26.3493 103.306 26.3055V27.013C103.156 27.084 102.971 27.1194 102.75 27.1194C102.455 27.1215 102.236 27.0276 102.086 26.8398Z" fill="#10069F"/>
    <path d="M104.781 26.6291C104.481 26.3014 104.333 25.8235 104.333 25.1953V21.7266H105.211V25.0868C105.211 25.9299 105.597 26.3494 106.366 26.3494C106.617 26.3494 106.85 26.2806 107.071 26.1449C107.292 26.0092 107.472 25.8068 107.611 25.5397C107.751 25.2725 107.82 24.9553 107.82 24.5921V21.7266H108.698V26.9714H107.82V26.0406C107.655 26.3974 107.426 26.6667 107.13 26.8483C106.833 27.0298 106.489 27.1217 106.097 27.1217C105.519 27.1217 105.081 26.9568 104.781 26.6291Z" fill="#10069F"/>
    <path d="M112.313 26.318C112.413 26.2972 112.523 26.2533 112.644 26.1886V26.9588C112.503 27.0235 112.365 27.0652 112.234 27.0861C112.102 27.1069 111.95 27.1174 111.779 27.1174C111.351 27.1174 111.013 26.9817 110.767 26.7104C110.521 26.4391 110.398 26.03 110.398 25.479V22.4277H109.66V21.7202H110.398V20.2864L111.276 20.1152V21.7202H112.603V22.4277H111.276V25.5103C111.276 25.7963 111.332 26.0071 111.447 26.1427C111.562 26.2784 111.737 26.3473 111.971 26.3473C112.098 26.3514 112.213 26.341 112.313 26.318Z" fill="#10069F"/>
    <path d="M113.52 19.9395H114.697V20.8599H113.52V19.9395ZM113.671 21.726H114.549V26.9708H113.671V21.726Z" fill="#10069F"/>
    <path d="M116.97 26.7729C116.574 26.5412 116.268 26.2156 116.051 25.794C115.834 25.3724 115.725 24.8924 115.725 24.3498C115.725 23.8071 115.834 23.325 116.051 22.9055C116.268 22.4839 116.574 22.1583 116.97 21.9267C117.367 21.695 117.821 21.5781 118.335 21.5781C118.848 21.5781 119.302 21.695 119.699 21.9267C120.095 22.1583 120.402 22.486 120.618 22.9055C120.835 23.3271 120.944 23.8092 120.944 24.3498C120.944 24.8924 120.835 25.3745 120.618 25.794C120.402 26.2156 120.095 26.5412 119.699 26.7729C119.302 27.0045 118.848 27.1214 118.335 27.1214C117.821 27.1214 117.367 27.0045 116.97 26.7729ZM119.217 26.0987C119.478 25.9318 119.68 25.6959 119.826 25.3912C119.972 25.0886 120.045 24.7401 120.045 24.3477C120.045 23.9553 119.972 23.6068 119.826 23.3041C119.68 23.0015 119.475 22.7657 119.217 22.5966C118.956 22.4297 118.662 22.3441 118.335 22.3441C118.007 22.3441 117.713 22.4276 117.452 22.5966C117.192 22.7636 116.989 22.9994 116.843 23.3041C116.697 23.6089 116.624 23.9553 116.624 24.3477C116.624 24.7401 116.697 25.0886 116.843 25.3912C116.989 25.6938 117.192 25.9297 117.452 26.0987C117.713 26.2657 118.007 26.3513 118.335 26.3513C118.662 26.3513 118.956 26.2678 119.217 26.0987Z" fill="#10069F"/>
    <path d="M122.122 21.7264H123V22.6573C123.165 22.3004 123.394 22.0312 123.691 21.8496C123.987 21.668 124.331 21.5762 124.723 21.5762C125.301 21.5762 125.739 21.7411 126.039 22.0687C126.34 22.3964 126.488 22.8743 126.488 23.5025V26.9713H125.61V23.6111C125.61 22.77 125.224 22.3484 124.454 22.3484C124.204 22.3484 123.968 22.4173 123.747 22.5508C123.526 22.6865 123.346 22.8889 123.207 23.1561C123.067 23.4232 122.998 23.7405 122.998 24.1036V26.9733H122.12V21.7264H122.122Z" fill="#10069F"/>
    <path d="M8.69361 2.52119C9.07739 1.96185 9.53209 1.49435 10.0598 1.11867C10.5958 0.736738 11.207 0.450809 11.889 0.262972C12.5273 0.0876573 13.2552 0 14.5171 0H45.0778L36.2988 31.2185C35.4103 34.3742 33.2494 36 29.981 36L4.28429 35.9979C2.93062 35.9979 2.34244 35.8643 1.80639 35.6181C1.31624 35.3947 0.922025 35.0775 0.625845 34.6851C0.283779 34.2302 0.0772873 33.6896 0.0188857 33.0739C-0.0311728 32.5396 0.0147142 32.0053 0.356781 30.7907L7.52349 5.29909C7.93648 3.83396 8.25769 3.15775 8.69361 2.52119Z" fill="#8A8A8F"/>
    <path d="M48.6423 2.52119C49.024 1.96185 49.4828 1.49435 50.0085 1.11867C50.5466 0.736738 51.1577 0.450809 51.8377 0.262972C52.478 0.0876573 53.2039 0 54.4637 0H85.0244L76.2433 31.2185C75.3568 34.3742 73.1939 36 69.9255 36L44.2288 35.9979C42.8772 35.9979 42.289 35.8643 41.7509 35.6181C41.2607 35.3947 40.8665 35.0775 40.5703 34.6851C40.2262 34.2302 40.0218 33.6896 39.9634 33.0739C39.9154 32.5396 39.9592 32.0053 40.3013 30.7907L47.4722 5.29909C47.8851 3.83396 48.2043 3.15775 48.6423 2.52119Z" fill="#8A8A8F"/>
    <path d="M1.80224 31.2632L9.0211 5.5963C9.35691 4.40666 9.59051 3.90159 9.90964 3.41113C10.2246 2.93319 10.5979 2.5429 11.038 2.24028C11.4427 1.9627 11.8974 1.75816 12.4063 1.62042C12.9152 1.48267 13.5577 1.41797 14.5317 1.41797H43.0984L34.8263 30.8332C34.1004 33.4129 32.4568 34.5795 29.8726 34.5795H4.29474C3.39577 34.5795 2.99739 34.5169 2.66575 34.3959C2.3362 34.2727 2.07548 34.0912 1.88567 33.8553C1.67918 33.5965 1.56029 33.2709 1.53318 32.8827C1.50815 32.5342 1.54152 32.1919 1.80224 31.2632Z" fill="#10069F"/>
    <path d="M41.8022 31.2632L49.0211 5.5963C49.3569 4.40666 49.5905 3.90159 49.9096 3.41113C50.2246 2.93319 50.5979 2.5429 51.038 2.24028C51.4427 1.9627 51.8974 1.75816 52.4063 1.62042C52.9152 1.48267 53.5577 1.41797 54.5317 1.41797H83.0984L74.8263 30.8332C74.1004 33.4129 72.4568 34.5795 69.8726 34.5795H44.2947C43.3958 34.5795 42.9974 34.5169 42.6658 34.3959C42.3362 34.2727 42.0755 34.0912 41.8857 33.8553C41.6792 33.5965 41.5603 33.2709 41.5332 32.8827C41.5081 32.5342 41.5415 32.1919 41.8022 31.2632Z" fill="#E60003"/>
    <path d="M8.48712 25.1823L7.13554 29.9867H4.53876L5.95083 24.9569C6.174 24.1659 6.6141 23.7422 7.47761 23.7422H17.02C17.8835 23.7422 18.1568 24.2911 17.944 25.0529L16.5611 29.9867H13.9539L15.3013 25.1823H13.1968L11.8473 29.9867H9.24009L10.5917 25.1823H8.48712Z" fill="white"/>
    <path d="M25.7343 28.6747L26.7167 25.1788H23.0187L22.0717 28.5473H24.2639L23.8551 29.9937H20.3551C19.4895 29.9937 19.2163 29.4448 19.4311 28.6809L20.4198 25.1788H18.7741L19.1787 23.7408H20.8244L21.0977 22.7766L23.9239 21.9668L23.4212 23.7408H29.7411L28.3854 28.5453H30.492L31.8436 23.7408H34.4445L33.0325 28.7707C32.8114 29.5617 32.3692 29.9833 31.5078 29.9833H26.6583C25.7948 29.9853 25.5216 29.4364 25.7343 28.6747Z" fill="white"/>
  </svg>